/* XPM */
static char * application_form_edit_xpm[] = {
"16 16 100 2",
"  	c None",
". 	c #90B3DE",
"+ 	c #79A5DC",
"@ 	c #78A2D9",
"# 	c #749ED4",
"$ 	c #729CD2",
"% 	c #7199CF",
"& 	c #6F98CE",
"* 	c #6E95CB",
"= 	c #6B92C8",
"- 	c #7E9DC5",
"; 	c #84ABDD",
"> 	c #91B8E8",
", 	c #6F8FC0",
"' 	c #658ABF",
") 	c #F5F5F5",
"! 	c #6286BC",
"~ 	c #C2C2C2",
"{ 	c #CCBC93",
"] 	c #D8A457",
"^ 	c #DBB084",
"/ 	c #D09C45",
"( 	c #F1F1F1",
"_ 	c #5782D2",
": 	c #FFFFFF",
"< 	c #F5E6B0",
"[ 	c #E7BD76",
"} 	c #F0D2B3",
"| 	c #FFF3E5",
"1 	c #EFD2AB",
"2 	c #CC9557",
"3 	c #F5E6B4",
"4 	c #EED680",
"5 	c #F9E3B1",
"6 	c #E7BF8A",
"7 	c #F6D3AD",
"8 	c #FCE0C3",
"9 	c #D4A169",
"0 	c #EDEDEE",
"a 	c #EBDEB4",
"b 	c #EED47C",
"c 	c #FDF6C2",
"d 	c #F6DD6B",
"e 	c #EDCA6C",
"f 	c #D7A262",
"g 	c #C99862",
"h 	c #729BD1",
"i 	c #EBECEC",
"j 	c #ECEBEC",
"k 	c #CABC94",
"l 	c #EED378",
"m 	c #FDF7C7",
"n 	c #F5DC5D",
"o 	c #F7E159",
"p 	c #F1D579",
"q 	c #E09F4F",
"r 	c #6D7D9B",
"s 	c #6E96CC",
"t 	c #E9E9E9",
"u 	c #BEAD88",
"v 	c #E7CB76",
"w 	c #DD984A",
"x 	c #E7D7C3",
"y 	c #5374AA",
"z 	c #6D93CA",
"A 	c #E7E7E8",
"B 	c #D7C5A3",
"C 	c #D6B774",
"D 	c #F7DF62",
"E 	c #F8E25C",
"F 	c #F0D378",
"G 	c #FAF1E6",
"H 	c #5171A8",
"I 	c #E6E6E6",
"J 	c #C9B496",
"K 	c #D5B579",
"L 	c #D1B68F",
"M 	c #E4C954",
"N 	c #F5DF5A",
"O 	c #EDD077",
"P 	c #DB9A4E",
"Q 	c #E3D9CF",
"R 	c #8BA0C5",
"S 	c #678DC2",
"T 	c #A98842",
"U 	c #FFF2E0",
"V 	c #D89953",
"W 	c #BD7919",
"X 	c #C49748",
"Y 	c #B5803F",
"Z 	c #6A7898",
"` 	c #83662D",
" .	c #F9C793",
"..	c #F9C990",
"+.	c #C98440",
"@.	c #AD6A25",
"#.	c #594218",
"$.	c #87602A",
"%.	c #BD884A",
"&.	c #CBA76F",
"                                ",
"  . + + @ @ # # $ % & * = -     ",
"; > > > > > > > > > > > > > ,   ",
"+ + + + + + + + + + + + + + '   ",
"+ ) ) ) ) ) ) ) ) ) ) ) ) ) !   ",
"@ ) ) ) ) ) ~ ~ ~ ~ ~ { ] ^ /   ",
"@ ( _ _ _ ( ~ : : : < [ } | 1 2 ",
"# ( ( ( ( ( ~ : : 3 4 5 6 7 8 9 ",
"# 0 0 0 0 0 0 0 a b c d e f g   ",
"h i i i i j ~ k l m n o p q r   ",
"s t _ _ _ t u v m n o p w x y   ",
"z A A A A B C c D E F w G A H   ",
"= I I I J K L M N O P Q I I H   ",
"R S ' ! T U V W X Y Z y H H R   ",
"        `  ...+.@.              ",
"        #.$.%.&.                "};
