/* XPM */
static char * application_double_xpm[] = {
"16 16 68 1",
" 	c None",
".	c #AAC4E5",
"+	c #98B9E4",
"@	c #98B8E2",
"#	c #97B6E1",
"$	c #94B3DD",
"%	c #91B2DD",
"&	c #91B1DA",
"*	c #90AFD9",
"=	c #8FADD7",
"-	c #8DAAD4",
";	c #9CB3D2",
">	c #A1BFE5",
",	c #AAC8ED",
"'	c #90A9CF",
")	c #88A5CD",
"!	c #FFFFFF",
"~	c #86A1CB",
"{	c #F9FBFB",
"]	c #B1BFD8",
"^	c #79A5DC",
"/	c #78A2D9",
"(	c #749ED4",
"_	c #729CD2",
":	c #7199CF",
"<	c #6F98CE",
"[	c #6E95CB",
"}	c #6B92C8",
"|	c #7E9DC5",
"1	c #FAFCFC",
"2	c #85ACDD",
"3	c #91B8E8",
"4	c #6F8FC0",
"5	c #94B5DE",
"6	c #658ABF",
"7	c #FEFEFE",
"8	c #6286BC",
"9	c #F8FBFC",
"0	c #F5F9FB",
"a	c #F4F7FB",
"b	c #F1F5FA",
"c	c #EDF3F7",
"d	c #E9EDF6",
"e	c #E7EBF5",
"f	c #E4EAF3",
"g	c #DEE7F2",
"h	c #5F84B9",
"i	c #EEF4F8",
"j	c #EAF1F7",
"k	c #5D80B6",
"l	c #A5B6D2",
"m	c #8AA7D0",
"n	c #87A2CC",
"o	c #EDF2F9",
"p	c #5B7DB4",
"q	c #729BD1",
"r	c #F7FCFC",
"s	c #577AB0",
"t	c #6E96CC",
"u	c #5374AA",
"v	c #5071A8",
"w	c #8BA0C5",
"x	c #678DC2",
"y	c #6084BA",
"z	c #5E82B8",
"A	c #597BB1",
"B	c #5678AE",
"C	c #5575AC",
" .+@#$%&*=-;    ",
">,,,,,,,,,,,'   ",
"++++++++++++)   ",
"@!!!!!!!!!!!~   ",
"#!{]%^//(_:<[}| ",
"#!12333333333334",
"5!1^^^^^^^^^^^^6",
"&!7^!!!!!!!!!!!8",
"=!!/!90abcdefg!h",
"-!!/!1{0abijjd!k",
"lmn(!1110aaboo!p",
"   q!7711r{00a!s",
"   t!!771111r0!u",
"   }!!!!!!!!!!!v",
"   wx8yzAsBCuvvw",
"                "};
