/* XPM */
static char * application_form_add_xpm[] = {
"16 16 69 1",
" 	c None",
".	c #90B3DE",
"+	c #79A5DC",
"@	c #78A2D9",
"#	c #749ED4",
"$	c #729CD2",
"%	c #7199CF",
"&	c #6F98CE",
"*	c #6E95CB",
"=	c #6B92C8",
"-	c #7E9DC5",
";	c #84ABDD",
">	c #91B8E8",
",	c #6F8FC0",
"'	c #658ABF",
")	c #F5F5F5",
"!	c #6286BC",
"~	c #C2C2C2",
"{	c #5F84B9",
"]	c #F1F1F1",
"^	c #5782D2",
"/	c #FFFFFF",
"(	c #5D80B6",
"_	c #5B7DB4",
":	c #EDEDEE",
"<	c #597BB1",
"[	c #729BD1",
"}	c #EBECEC",
"|	c #ECEBEC",
"1	c #99AB8E",
"2	c #71955C",
"3	c #658D4E",
"4	c #5F8848",
"5	c #507870",
"6	c #6E96CC",
"7	c #E9E9E9",
"8	c #B2C7A7",
"9	c #80AA60",
"0	c #B3D494",
"a	c #D0E6B9",
"b	c #8EBA69",
"c	c #568E2C",
"d	c #91AE81",
"e	c #6D93CA",
"f	c #E7E7E8",
"g	c #618A49",
"h	c #B0D38F",
"i	c #B0D691",
"j	c #8BBB64",
"k	c #8EBB66",
"l	c #3C6E1F",
"m	c #E5E5E5",
"n	c #4B7A30",
"o	c #B5D49B",
"p	c #B1D294",
"q	c #366A18",
"r	c #8BA0C5",
"s	c #678DC2",
"t	c #6084BA",
"u	c #5E82B8",
"v	c #5B7DB3",
"w	c #577AB0",
"x	c #396B1F",
"y	c #8AB961",
"z	c #86B85F",
"A	c #96B187",
"B	c #528B27",
"C	c #8CB963",
"D	c #407123",
"                ",
" .++@@##$%&*=-  ",
";>>>>>>>>>>>>>, ",
"++++++++++++++' ",
"+)))))))))))))! ",
"@)))))~~~~~~~){ ",
"@]^^^]~//////]( ",
"#]]]]]~//////]_ ",
"#:::::::::::::< ",
"[}}}}|~~~~12345 ",
"67^^^7~//890abcd",
"efffff~//ghi/jkl",
"=mmmmmmmmno///pq",
"rs'!tuv<wxyz/zkl",
"         ABCpCBd",
"          dDqDd "};
