/* XPM */
static char * application_form_magnify_xpm[] = {
"16 16 87 1",
" 	c None",
".	c #90B3DE",
"+	c #79A5DC",
"@	c #78A2D9",
"#	c #749ED4",
"$	c #729CD2",
"%	c #7199CF",
"&	c #6F98CE",
"*	c #6E95CB",
"=	c #6B92C8",
"-	c #7E9DC5",
";	c #84ABDD",
">	c #91B8E8",
",	c #6F8FC0",
"'	c #658ABF",
")	c #F5F5F5",
"!	c #6286BC",
"~	c #C2C2C2",
"{	c #5F84B9",
"]	c #F1F1F1",
"^	c #5782D2",
"/	c #FFFFFF",
"(	c #5D80B6",
"_	c #FFFFFE",
":	c #C1D4E3",
"<	c #ABC5DA",
"[	c #9EBDE0",
"}	c #A6C3E5",
"|	c #B5CDE3",
"1	c #F0EEEA",
"2	c #5B7DB4",
"3	c #EDEDEE",
"4	c #BECFDE",
"5	c #B3CDE9",
"6	c #DBE7F5",
"7	c #DFECF8",
"8	c #C9DCF2",
"9	c #B7D0EB",
"0	c #B9CBDF",
"a	c #597BB1",
"b	c #729BD1",
"c	c #EBECEC",
"d	c #ECEBEC",
"e	c #A9C4E6",
"f	c #D6E4F3",
"g	c #CAE0F6",
"h	c #C4DDF4",
"i	c #D3E6F8",
"j	c #A7C1E0",
"k	c #5779AF",
"l	c #6E96CC",
"m	c #E9E9E9",
"n	c #DCEAF8",
"o	c #C3DCF4",
"p	c #BCD8F3",
"q	c #CDE2F8",
"r	c #A3C0E4",
"s	c #5374AB",
"t	c #6D93CA",
"u	c #E7E7E8",
"v	c #D6E5F5",
"w	c #C0DAF4",
"x	c #CBE2F8",
"y	c #99B5D9",
"z	c #5272A9",
"A	c #E5E5E6",
"B	c #BACCE1",
"C	c #C7E0F7",
"D	c #B2D1F3",
"E	c #98A2B1",
"F	c #767582",
"G	c #8BA0C5",
"H	c #678DC2",
"I	c #6084BA",
"J	c #5E82B8",
"K	c #5B7DB3",
"L	c #6083B7",
"M	c #7899C8",
"N	c #99B8DF",
"O	c #96A2B5",
"P	c #D3B79B",
"Q	c #C39462",
"R	c #CC9D6A",
"S	c #DEB891",
"T	c #B7864F",
"U	c #BD8F59",
"V	c #B9894F",
"                ",
" .++@@##$%&*=-  ",
";>>>>>>>>>>>>>, ",
"++++++++++++++' ",
"+)))))))))))))! ",
"@)))))~~~~~~~){ ",
"@]^^^]~//////]( ",
"#]]]]]~_:<[}|12 ",
"#3333334567890a ",
"bccccd~efghhijk ",
"lm^^^m~[nhopqrs ",
"tuuuuu~}vwppxyz ",
"=AAAAAAB8qCxDEF ",
"GH'!IJKLMeeNOPQ ",
"             RST",
"              UV"};
