/* XPM */
static char * application_form_delete_xpm[] = {
"16 16 72 1",
" 	c None",
".	c #90B3DE",
"+	c #79A5DC",
"@	c #78A2D9",
"#	c #749ED4",
"$	c #729CD2",
"%	c #7199CF",
"&	c #6F98CE",
"*	c #6E95CB",
"=	c #6B92C8",
"-	c #7E9DC5",
";	c #84ABDD",
">	c #91B8E8",
",	c #6F8FC0",
"'	c #658ABF",
")	c #F5F5F5",
"!	c #6286BC",
"~	c #C2C2C2",
"{	c #5F84B9",
"]	c #F1F1F1",
"^	c #5782D2",
"/	c #FFFFFF",
"(	c #5D80B6",
"_	c #5B7DB4",
":	c #EDEDEE",
"<	c #597BB1",
"[	c #729BD1",
"}	c #EBECEC",
"|	c #ECEBEC",
"1	c #C29074",
"2	c #BF5A22",
"3	c #BB4104",
"4	c #BE571C",
"5	c #85605E",
"6	c #6E96CC",
"7	c #E9E9E9",
"8	c #E3B095",
"9	c #D2753C",
"0	c #F6B48C",
"a	c #FED6B7",
"b	c #F5A771",
"c	c #CA6A2D",
"d	c #6D93CA",
"e	c #E7E7E8",
"f	c #C15C24",
"g	c #FF914C",
"h	c #FF7611",
"i	c #FF8520",
"j	c #EB893F",
"k	c #C05B22",
"l	c #E5E5E5",
"m	c #FECDAD",
"n	c #EF7E17",
"o	c #8BA0C5",
"p	c #678DC2",
"q	c #6084BA",
"r	c #5E82B8",
"s	c #5B7DB3",
"t	c #577AB0",
"u	c #AD4A15",
"v	c #F49C62",
"w	c #FF7E17",
"x	c #F87500",
"y	c #EE7500",
"z	c #E16703",
"A	c #E0AA8B",
"B	c #C96527",
"C	c #E67620",
"D	c #EA7805",
"E	c #DD6301",
"F	c #BC4E06",
"G	c #BF581E",
"                ",
" .++@@##$%&*=-  ",
";>>>>>>>>>>>>>, ",
"++++++++++++++' ",
"+)))))))))))))! ",
"@)))))~~~~~~~){ ",
"@]^^^]~//////]( ",
"#]]]]]~//////]_ ",
"#:::::::::::::< ",
"[}}}}|~~~~12345 ",
"67^^^7~//890abc ",
"deeeee~//f0ghijk",
"=llllllll3m///n3",
"op'!qrs<tuvwxyz4",
"         ABCDEF ",
"           k3G  "};
