/* XPM */
static char * arrow_refresh_xpm[] = {
"16 16 82 1",
" 	c None",
".	c #6DAA66",
"+	c #8FBB8A",
"@	c #8FC888",
"#	c #6BB263",
"$	c #59A54F",
"%	c #529D4A",
"&	c #4C9544",
"*	c #67A960",
"=	c #61A15A",
"-	c #8FB58B",
";	c #95CC8D",
">	c #81C278",
",	c #91CA89",
"'	c #9BD093",
")	c #9DD195",
"!	c #98CF8F",
"~	c #95CB8D",
"{	c #8EC986",
"]	c #88C27F",
"^	c #53944D",
"/	c #91B28E",
"(	c #A3D49A",
"_	c #9ACF92",
":	c #89C581",
"<	c #84C37D",
"[	c #7EC078",
"}	c #4B8C46",
"|	c #88AB86",
"1	c #7DBE74",
"2	c #A0D297",
"3	c #8CC685",
"4	c #65A65E",
"5	c #3F8538",
"6	c #397D33",
"7	c #32752D",
"8	c #4E8F48",
"9	c #498A44",
"0	c #80A47D",
"a	c #89C282",
"b	c #599752",
"c	c #93B98F",
"d	c #4C8049",
"e	c #759B72",
"f	c #63A85C",
"g	c #519A49",
"h	c #4E9346",
"i	c #4E8F47",
"j	c #9ABD96",
"k	c #A7CEA3",
"l	c #5A9F53",
"m	c #468A3F",
"n	c #4C8A46",
"o	c #A3D79D",
"p	c #83C67A",
"q	c #9FC99A",
"r	c #75B26E",
"s	c #6B9968",
"t	c #AAD8A3",
"u	c #84C77A",
"v	c #80C176",
"w	c #5DAA53",
"x	c #56A24D",
"y	c #6AAB62",
"z	c #55964F",
"A	c #AEDAA8",
"B	c #A6D79D",
"C	c #62A35C",
"D	c #AED7A9",
"E	c #7BBC72",
"F	c #8AC784",
"G	c #80BD79",
"H	c #6BAC64",
"I	c #50914A",
"J	c #6A9667",
"K	c #6DAF65",
"L	c #438A3C",
"M	c #3D8236",
"N	c #367A31",
"O	c #417E3C",
"P	c #669563",
"Q	c #629C5C",
"                ",
"         .+     ",
"    @#$%&*=-    ",
"  ;>,')!~{]^/   ",
" ~{(!_;{:<[}|   ",
" 12'34567890    ",
"a];abc   de     ",
"fghij           ",
"           klhmn",
"     op   q=3{rs",
"    tuvwxgya{:z ",
"   A>B()_;{><Cs ",
"   DE)';,FGHIJ  ",
"    qK*LMNOP    ",
"     +Q         ",
"                "};
