/* XPM */
static char * book_open_xpm[] = {
"16 16 88 1",
" 	c None",
".	c #6299C8",
"+	c #81ADD3",
"@	c #7FABD0",
"#	c #7CA8CE",
"$	c #7AA5CB",
"%	c #739FC5",
"&	c #6994BA",
"*	c #6993B7",
"=	c #658FB3",
"-	c #618AAE",
";	c #5D86AA",
">	c #316290",
",	c #6298C5",
"'	c #F8F8F8",
")	c #B0C5D9",
"!	c #5E8EB7",
"~	c #5A89B3",
"{	c #AEC3D7",
"]	c #2B5C8A",
"^	c #376996",
"/	c #5F96C4",
"(	c #CCCCCC",
"_	c #C9C9C9",
":	c #C5C5C5",
"<	c #F1F1F1",
"[	c #D2D8DD",
"}	c #DFE5EB",
"|	c #FCFCFC",
"1	c #BCBCBC",
"2	c #265683",
"3	c #5B92C0",
"4	c #EDEDED",
"5	c #E9E9E9",
"6	c #D5D5D5",
"7	c #B4B4B4",
"8	c #DDDDDD",
"9	c #F4F4F4",
"0	c #1F4F7C",
"a	c #2C5D89",
"b	c #6197C5",
"c	c #578CBA",
"d	c #D3D3D3",
"e	c #A5A5A5",
"f	c #D8D8D8",
"g	c #B9B9B9",
"h	c #194976",
"i	c #5F94C1",
"j	c #5288B6",
"k	c #144370",
"l	c #21517D",
"m	c #5B90BD",
"n	c #4D82B0",
"o	c #113D6A",
"p	c #1D4C79",
"q	c #487CAA",
"r	c #E7E7E7",
"s	c #0B3865",
"t	c #194773",
"u	c #5387B5",
"v	c #4276A4",
"w	c #E3E3E3",
"x	c #073461",
"y	c #15436F",
"z	c #4E82AF",
"A	c #3C6F9D",
"B	c #326492",
"C	c #2D5F8C",
"D	c #285986",
"E	c #235381",
"F	c #728EA9",
"G	c #154471",
"H	c #113F6C",
"I	c #0D3B68",
"J	c #0A3764",
"K	c #063360",
"L	c #03305D",
"M	c #5C8AB2",
"N	c #1C4B78",
"O	c #0E3B67",
"P	c #4175A2",
"Q	c #386792",
"R	c #35648F",
"S	c #012D5A",
"T	c #7593B0",
"U	c #335D85",
"V	c #2F5980",
"W	c #5E81A3",
"                ",
"                ",
" .+@#$%  &*=-;> ",
",.'''')!~{'''']^",
",/'(_:<[}|(_1'2>",
",3'<456789<48'0a",
"bc'(_:def9(:g'h2",
"ij'<45def9458'kl",
"mn'(_:def9_:g'op",
"cq'<4rdef9458'st",
"uv''''<w9'''5'xy",
"zA^BCDEFFGHIJKLo",
"qMMMMMM0NMMMMMMO",
"PA^BCDEQRGHIJKLS",
"      TUVW      ",
"                "};
