/* XPM */
static char * connect_xpm[] = {
"16 16 89 1",
" 	c None",
".	c #7DA1D4",
"+	c #749CD1",
"@	c #B5CBE8",
"#	c #81A6D8",
"$	c #8AABD6",
"%	c #83A6D3",
"&	c #5B88C2",
"*	c #AEC7EB",
"=	c #92B3E3",
"-	c #8DB0DF",
";	c #88AADA",
">	c #8BACDA",
",	c #97B4DC",
"'	c #8EADD7",
")	c #7299CC",
"!	c #4679B7",
"~	c #9DB9E4",
"{	c #AAC3E6",
"]	c #A2BDE1",
"^	c #9BB8DE",
"/	c #92B1D9",
"(	c #80A2D0",
"_	c #84A6D2",
":	c #507EBA",
"<	c #85B2C4",
"[	c #98B6DD",
"}	c #85A7D5",
"|	c #7CA0D0",
"1	c #7299CB",
"2	c #7EA1CE",
"3	c #6189BE",
"4	c #8CA6CD",
"5	c #B9CDED",
"6	c #93B2BA",
"7	c #81C476",
"8	c #80AFB4",
"9	c #91AFD8",
"0	c #6E96C9",
"a	c #668EC2",
"b	c #7599C8",
"c	c #4970B0",
"d	c #A5C0E8",
"e	c #85A6A0",
"f	c #7EC075",
"g	c #5A8FAF",
"h	c #6E94C5",
"i	c #7A9DCA",
"j	c #5884BB",
"k	c #6B91C2",
"l	c #3E62A5",
"m	c #8EB0E0",
"n	c #8DACD8",
"o	c #7295A8",
"p	c #4978A4",
"q	c #5C83BA",
"r	c #688EBF",
"s	c #6089BB",
"t	c #34519B",
"u	c #86A9D6",
"v	c #7A9ECD",
"w	c #608995",
"x	c #7BBB6C",
"y	c #456E92",
"z	c #4E74AF",
"A	c #4061A3",
"B	c #485D9E",
"C	c #82A3CF",
"D	c #638B7C",
"E	c #79B769",
"F	c #37518C",
"G	c #6C7BB0",
"H	c #8DABD6",
"I	c #7097C9",
"J	c #5E88BE",
"K	c #486980",
"L	c #759CCE",
"M	c #476CAB",
"N	c #5C84BB",
"O	c #4870AE",
"P	c #37569D",
"Q	c #5D71AD",
"R	c #5887C2",
"S	c #658BBF",
"T	c #8A9FC9",
"U	c #497AB9",
"V	c #466CAE",
"W	c #3C68AA",
"X	c #3F63A9",
"             .+ ",
"           @#$%&",
"       *=-;>,')!",
"       ~{]^/(_: ",
"      <][}|1234 ",
"    56789'0abc  ",
"   d~~efghijkl  ",
"   m{]no pqrst  ",
"   ;]u/vwxyzAB  ",
"   .,|)CbDEFG   ",
"  [}HIaJa3K     ",
"  L$1vbhrM      ",
" )(CiNOlPQ      ",
"R|2SOT          ",
"UJ3V            ",
" WX             "};
