/* XPM */
static char * cross_xpm[] = {
"16 16 49 1",
" 	c None",
".	c #FE7578",
"+	c #F86062",
"@	c #F96769",
"#	c #F78B8D",
"$	c #FF7D7F",
"%	c #FE7D80",
"&	c #FE7073",
"*	c #F75E60",
"=	c #FB6C6E",
"-	c #FE797C",
";	c #FF8689",
">	c #FE787A",
",	c #FB686B",
"'	c #F85D60",
")	c #FA6A6C",
"!	c #F0474A",
"~	c #FD7275",
"{	c #FF8185",
"]	c #F75C5F",
"^	c #EF4548",
"/	c #F96265",
"(	c #F65A5C",
"_	c #FF5A5D",
":	c #FF5659",
"<	c #EE4245",
"[	c #FF5356",
"}	c #FF6F71",
"|	c #F6585A",
"1	c #FF6D6F",
"2	c #FD6B6D",
"3	c #F65456",
"4	c #ED3C3E",
"5	c #F65659",
"6	c #F44C4F",
"7	c #FF6667",
"8	c #EA3335",
"9	c #ED4042",
"0	c #F14446",
"a	c #FF6162",
"b	c #F44749",
"c	c #E92C2E",
"d	c #E62B2D",
"e	c #F13E40",
"f	c #F6494B",
"g	c #EA2E30",
"h	c #F24B4E",
"i	c #ED3E40",
"j	c #E42325",
"                ",
"                ",
"   ..      +@#  ",
"  .$%&    *=-*  ",
"  &-;>,  ')-*!  ",
"   =~{~+])>]^   ",
"    /=$->.(^    ",
"     (-_:~<     ",
"     (.:[}^     ",
"    |/&}1234    ",
"   |/&5<46768   ",
"  |/}59  80abc  ",
"  3+39    defg  ",
"   hi      jg   ",
"                ",
"                "};
