/* XPM */
static char * group_delete_xpm[] = {
"16 16 145 2",
"  	c None",
". 	c #D59B30",
"+ 	c #E4A418",
"@ 	c #DEA122",
"# 	c #C3A576",
"$ 	c #C4AA82",
"% 	c #C6A278",
"& 	c #E5AD33",
"* 	c #E6B764",
"= 	c #F6C88C",
"- 	c #E6AC3A",
"; 	c #E5A61C",
"> 	c #D69C2F",
", 	c #C49F7A",
"' 	c #E7D0B7",
") 	c #F2C495",
"! 	c #FBD0A0",
"~ 	c #E4CFB5",
"{ 	c #C69149",
"] 	c #D6A371",
"^ 	c #F2D1AB",
"/ 	c #FDD7AD",
"( 	c #F5D4AF",
"_ 	c #E7BF91",
": 	c #A9917C",
"< 	c #99684B",
"[ 	c #915C41",
"} 	c #956144",
"| 	c #867756",
"1 	c #93786C",
"2 	c #E7AC72",
"3 	c #E3B080",
"4 	c #E7B17C",
"5 	c #C3976B",
"6 	c #699066",
"7 	c #8F5A40",
"8 	c #9D8E6E",
"9 	c #929883",
"0 	c #88937C",
"a 	c #7E8B74",
"b 	c #B0D5A3",
"c 	c #84BE81",
"d 	c #7AAD76",
"e 	c #A87D60",
"f 	c #99684F",
"g 	c #AD7F62",
"h 	c #D6A57B",
"i 	c #A47254",
"j 	c #976643",
"k 	c #9ED07B",
"l 	c #96CE76",
"m 	c #8DCD70",
"n 	c #87CD71",
"o 	c #AAD89C",
"p 	c #6FAF6C",
"q 	c #89A687",
"r 	c #B68D6A",
"s 	c #DBBEA6",
"t 	c #A67940",
"u 	c #8ECE77",
"v 	c #88CD74",
"w 	c #82CB6F",
"x 	c #79CA69",
"y 	c #60955F",
"z 	c #DE954D",
"A 	c #888253",
"B 	c #93CF78",
"C 	c #A6954C",
"D 	c #B95B19",
"E 	c #BB4104",
"F 	c #B0510F",
"G 	c #866B30",
"H 	c #E69A4B",
"I 	c #957A6E",
"J 	c #2B5473",
"K 	c #907F3E",
"L 	c #CF7338",
"M 	c #F6B48C",
"N 	c #FED6B7",
"O 	c #F5A771",
"P 	c #CA6A2D",
"Q 	c #DA9A70",
"R 	c #5978CF",
"S 	c #BFE8FF",
"T 	c #85A9AC",
"U 	c #7C9DA6",
"V 	c #74919F",
"W 	c #9BCAF7",
"X 	c #7493E4",
"Y 	c #AD4B1D",
"Z 	c #FF914C",
"` 	c #FF7611",
" .	c #FF8520",
"..	c #EB893F",
"+.	c #C05B22",
"@.	c #5A73B5",
"#.	c #B1D7FD",
"$.	c #83D6FF",
"%.	c #64CAFF",
"&.	c #5DBFFF",
"*.	c #55B3FF",
"=.	c #56A6FF",
"-.	c #91C4FF",
";.	c #FECDAD",
">.	c #FFFFFF",
",.	c #EF7E17",
"'.	c #D28435",
").	c #CCAB92",
"!.	c #72AEE7",
"~.	c #5EB7FF",
"{.	c #5DAFFE",
"].	c #5AA6FE",
"^.	c #549FFD",
"/.	c #4C96FF",
"(.	c #4C92FD",
"_.	c #B54E15",
":.	c #F49C62",
"<.	c #FF7E17",
"[.	c #F87500",
"}.	c #EE7500",
"|.	c #E16703",
"1.	c #BF571D",
"2.	c #E29A50",
"3.	c #AB8470",
"4.	c #587DC8",
"5.	c #65B9FF",
"6.	c #60B6FF",
"7.	c #5CB1FF",
"8.	c #5BB3FF",
"9.	c #5687DE",
"0.	c #A0644F",
"a.	c #C96425",
"b.	c #E67620",
"c.	c #EA7805",
"d.	c #DD6301",
"e.	c #BC4E06",
"f.	c #7488BF",
"g.	c #336FCB",
"h.	c #407DD2",
"i.	c #407BD1",
"j.	c #3E79CD",
"k.	c #3D5EB2",
"l.	c #C8B8B0",
"m.	c #DC9D74",
"n.	c #BF581E",
"                  . + @ #       ",
"                @ + + + + $     ",
"              % & * = - ; >     ",
"              , ' ) ! ) ~ {     ",
"                ] ^ / ( _ :     ",
"        < [ } | 1 2 3 4 5 6     ",
"      } 7 7 7 7 8 9 0 a b c d   ",
"    e f g h i [ j k l m n o p q ",
"    r s ) ! ) ~ t u v w x x y z ",
"      ] ^ / ( _ A B C D E F G H ",
"      I 2 3 4 5 J K L M N O P Q ",
"    R S T U V W X Y M Z `  ...+.",
"  @.#.$.%.&.*.=.-.E ;.>.>.>.,.E ",
"'.).!.~.{.].^./.(._.:.<.[.}.|.1.",
"2.3.4.5.6.{.7.8.9.0.a.b.c.d.e.  ",
"    f.g.h.h.i.j.k.l.m.+.E n.    "};
