/* XPM */
static char * group_go_xpm[] = {
"16 16 143 2",
"  	c None",
". 	c #D59B30",
"+ 	c #E4A418",
"@ 	c #DEA122",
"# 	c #C3A576",
"$ 	c #C4AA82",
"% 	c #C6A278",
"& 	c #E5AD33",
"* 	c #E6B764",
"= 	c #F6C88C",
"- 	c #E6AC3A",
"; 	c #E5A61C",
"> 	c #D69C2F",
", 	c #C49F7A",
"' 	c #E7D0B7",
") 	c #F2C495",
"! 	c #FBD0A0",
"~ 	c #E4CFB5",
"{ 	c #C69149",
"] 	c #D6A371",
"^ 	c #F2D1AB",
"/ 	c #FDD7AD",
"( 	c #F5D4AF",
"_ 	c #E7BF91",
": 	c #A9917C",
"< 	c #99684B",
"[ 	c #915C41",
"} 	c #956144",
"| 	c #867756",
"1 	c #93786C",
"2 	c #E7AC72",
"3 	c #E3B080",
"4 	c #E7B17C",
"5 	c #C3976B",
"6 	c #699066",
"7 	c #8F5A40",
"8 	c #9D8E6E",
"9 	c #929883",
"0 	c #88937C",
"a 	c #7E8B74",
"b 	c #B0D5A3",
"c 	c #84BE81",
"d 	c #7AAD76",
"e 	c #A87D60",
"f 	c #99684F",
"g 	c #AD7F62",
"h 	c #D6A57B",
"i 	c #A47254",
"j 	c #976643",
"k 	c #9ED07B",
"l 	c #6CA439",
"m 	c #649E30",
"n 	c #86CB6F",
"o 	c #AAD89C",
"p 	c #6FAF6C",
"q 	c #89A687",
"r 	c #B68D6A",
"s 	c #DBBEA6",
"t 	c #A67940",
"u 	c #8ECE77",
"v 	c #63A033",
"w 	c #80B259",
"x 	c #569727",
"y 	c #77C766",
"z 	c #60955F",
"A 	c #DE954D",
"B 	c #6EA43C",
"C 	c #6DA237",
"D 	c #66A032",
"E 	c #609C2F",
"F 	c #7BAE54",
"G 	c #A9CB90",
"H 	c #73AA4E",
"I 	c #448E17",
"J 	c #588E56",
"K 	c #E69A4B",
"L 	c #957A6E",
"M 	c #6AA236",
"N 	c #AFCE95",
"O 	c #ACCD93",
"P 	c #A8CA8F",
"Q 	c #8FBB73",
"R 	c #A0C689",
"S 	c #66A446",
"T 	c #348607",
"U 	c #5978CF",
"V 	c #BFE8FF",
"W 	c #85A9AC",
"X 	c #7C9DA6",
"Y 	c #629E30",
"Z 	c #8DB96E",
"` 	c #88B76A",
" .	c #84B565",
"..	c #7FB260",
"+.	c #81B466",
"@.	c #96C181",
"#.	c #5B9F3B",
"$.	c #267F03",
"%.	c #5A73B5",
"&.	c #B1D7FD",
"*.	c #83D6FF",
"=.	c #64CAFF",
"-.	c #5DBFFF",
";.	c #5A9A28",
">.	c #A5C98D",
",.	c #9DC487",
"'.	c #84B569",
").	c #328615",
"!.	c #D28435",
"~.	c #CCAB92",
"{.	c #72AEE7",
"].	c #5EB7FF",
"^.	c #5DAFFE",
"/.	c #5AA6FE",
"(.	c #509621",
"_.	c #48901B",
":.	c #428E15",
"<.	c #3A8A10",
"[.	c #5D9E39",
"}.	c #95C07F",
"|.	c #61A245",
"1.	c #338818",
"2.	c #E29A50",
"3.	c #AB8470",
"4.	c #587DC8",
"5.	c #65B9FF",
"6.	c #60B6FF",
"7.	c #5CB1FF",
"8.	c #5BB3FF",
"9.	c #5687DE",
"0.	c #7D7286",
"a.	c #318304",
"b.	c #5EA042",
"c.	c #35881B",
"d.	c #7488BF",
"e.	c #336FCB",
"f.	c #407DD2",
"g.	c #407BD1",
"h.	c #3E79CD",
"i.	c #3D5EB2",
"j.	c #C8B8B0",
"k.	c #288006",
"l.	c #1D7A03",
"                  . + @ #       ",
"                @ + + + + $     ",
"              % & * = - ; >     ",
"              , ' ) ! ) ~ {     ",
"                ] ^ / ( _ :     ",
"        < [ } | 1 2 3 4 5 6     ",
"      } 7 7 7 7 8 9 0 a b c d   ",
"    e f g h i [ j k l m n o p q ",
"    r s ) ! ) ~ t u v w x y z A ",
"      ] ^ / B C D E F G H I J K ",
"      L 2 3 M N O G P Q R S T   ",
"    U V W X Y O Z `  ...+.@.#.$.",
"  %.&.*.=.-.;.P >.R ,.'.@.S ).  ",
"!.~.{.].^./.(._.:.<.[.}.|.1.    ",
"2.3.4.5.6.^.7.8.9.0.a.b.c.      ",
"    d.e.f.f.g.h.i.j.k.l.        "};
