/* XPM */
static char * group_link_xpm[] = {
"16 16 135 2",
"  	c None",
". 	c #D59B30",
"+ 	c #E4A418",
"@ 	c #DEA122",
"# 	c #C3A576",
"$ 	c #C4AA82",
"% 	c #C6A278",
"& 	c #E5AD33",
"* 	c #E6B764",
"= 	c #F6C88C",
"- 	c #E6AC3A",
"; 	c #E5A61C",
"> 	c #D69C2F",
", 	c #C49F7A",
"' 	c #E7D0B7",
") 	c #F2C495",
"! 	c #FBD0A0",
"~ 	c #E4CFB5",
"{ 	c #C69149",
"] 	c #D6A371",
"^ 	c #F2D1AB",
"/ 	c #FDD7AD",
"( 	c #F5D4AF",
"_ 	c #E7BF91",
": 	c #A9917C",
"< 	c #99684B",
"[ 	c #915C41",
"} 	c #956144",
"| 	c #867756",
"1 	c #93786C",
"2 	c #E7AC72",
"3 	c #E3B080",
"4 	c #E7B17C",
"5 	c #C3976B",
"6 	c #699066",
"7 	c #8F5A40",
"8 	c #9D8E6E",
"9 	c #929883",
"0 	c #88937C",
"a 	c #7E8B74",
"b 	c #B0D5A3",
"c 	c #84BE81",
"d 	c #7AAD76",
"e 	c #A87D60",
"f 	c #99684F",
"g 	c #AD7F62",
"h 	c #D6A57B",
"i 	c #A47254",
"j 	c #976643",
"k 	c #9ED07B",
"l 	c #96CE76",
"m 	c #8DCD70",
"n 	c #87CD71",
"o 	c #AAD89C",
"p 	c #6FAF6C",
"q 	c #89A687",
"r 	c #B68D6A",
"s 	c #DBBEA6",
"t 	c #A67940",
"u 	c #8ECE77",
"v 	c #88CD74",
"w 	c #82CB6F",
"x 	c #79CA69",
"y 	c #60955F",
"z 	c #DE954D",
"A 	c #EACBA6",
"B 	c #B9A48E",
"C 	c #8B8987",
"D 	c #9D9D9D",
"E 	c #7D7C76",
"F 	c #8AB975",
"G 	c #8AC475",
"H 	c #7D857A",
"I 	c #838782",
"J 	c #607D60",
"K 	c #DF964A",
"L 	c #92785D",
"M 	c #919191",
"N 	c #E8E8E8",
"O 	c #DDDDDD",
"P 	c #C2C2C2",
"Q 	c #758572",
"R 	c #D6D8D5",
"S 	c #978D82",
"T 	c #5978CF",
"U 	c #93AFBF",
"V 	c #737575",
"W 	c #CED3D3",
"X 	c #5F686C",
"Y 	c #4B4B4C",
"Z 	c #646464",
"` 	c #777777",
" .	c #4C4C4C",
"..	c #858585",
"+.	c #797979",
"@.	c #5A73B5",
"#.	c #B1D7FD",
"$.	c #577C8F",
"%.	c #808385",
"&.	c #55AFF8",
"*.	c #3F4347",
"=.	c #BCBCBC",
"-.	c #CECECE",
";.	c #ADADAD",
">.	c #454545",
",.	c #D28435",
"'.	c #CCAB92",
").	c #72AEE7",
"!.	c #497EA8",
"~.	c #656B6F",
"{.	c #526680",
"].	c #404244",
"^.	c #505050",
"/.	c #434343",
"(.	c #808080",
"_.	c #6E6E6E",
":.	c #E29A50",
"<.	c #AB8470",
"[.	c #587DC8",
"}.	c #5BA2DD",
"|.	c #4F5D68",
"1.	c #898E93",
"2.	c #A4AAAF",
"3.	c #969696",
"4.	c #707070",
"5.	c #686869",
"6.	c #7488BF",
"7.	c #336EC9",
"8.	c #4071B5",
"9.	c #48505A",
"0.	c #616468",
"a.	c #696A6D",
"b.	c #9E938F",
"c.	c #C9B9A6",
"d.	c #5F5F5F",
"                  . + @ #       ",
"                @ + + + + $     ",
"              % & * = - ; >     ",
"              , ' ) ! ) ~ {     ",
"                ] ^ / ( _ :     ",
"        < [ } | 1 2 3 4 5 6     ",
"      } 7 7 7 7 8 9 0 a b c d   ",
"    e f g h i [ j k l m n o p q ",
"    r s ) ! ) ~ t u v w x x y z ",
"      ] A B C D E F G H D I J K ",
"      1 L M N O P H Q R O P M S ",
"    T U V W X Y Z M ` Z  ...P +.",
"  @.#.$.%.W &.*.=.-.P ;.>.  P ..",
",.'.).!.~.W {.].>.^.^.>./.(.P _.",
":.<.[.}.|.1.2.;.3.4.` 3.;.;.M 5.",
"    6.7.8.9.0.a.a.b.c.4._.5.d.  "};
