/* XPM */
static char * printer_xpm[] = {
"16 16 90 1",
" 	c None",
".	c #7BA9D6",
"+	c #4E8BC8",
"@	c #538EC9",
"#	c #4B88C4",
"$	c #8CAEDC",
"%	c #ECF2F7",
"&	c #EEF4F9",
"*	c #ECF2F8",
"=	c #D7E6F2",
"-	c #7CB1E2",
";	c #6793DB",
">	c #518CC7",
",	c #F0F4F8",
"'	c #CEE3FC",
")	c #CCE2FB",
"!	c #C8E0F9",
"~	c #C1DCF8",
"{	c #F8FBFD",
"]	c #CEE5FC",
"^	c #83B5E2",
"/	c #83A7D4",
"(	c #4E8AC6",
"_	c #C7E0FA",
":	c #DFE9F4",
"<	c #E9EFF5",
"[	c #467FC1",
"}	c #D2E5FC",
"|	c #D6E7FD",
"1	c #BAD6F5",
"2	c #B4D4F3",
"3	c #4983C3",
"4	c #858585",
"5	c #D7E8FE",
"6	c #BCDAF6",
"7	c #4782C3",
"8	c #5F5F5F",
"9	c #999999",
"0	c #CCCCCC",
"a	c #D8E8FE",
"b	c #4A85C5",
"c	c #C2C2C2",
"d	c #737373",
"e	c #959595",
"f	c #D2D2D2",
"g	c #E8E8E8",
"h	c #7C7C7C",
"i	c #6D6D6D",
"j	c #808080",
"k	c #FCFCFC",
"l	c #CBCBCB",
"m	c #F2F2F2",
"n	c #C5C5C5",
"o	c #F9F9F9",
"p	c #AAAAAA",
"q	c #DFDFDF",
"r	c #A1A1A1",
"s	c #606060",
"t	c #787878",
"u	c #D6D6D6",
"v	c #D8D8D8",
"w	c #BEBEBE",
"x	c #8C8C8C",
"y	c #3E3E3E",
"z	c #747474",
"A	c #B8B8B8",
"B	c #2A2A2A",
"C	c #B4B4B4",
"D	c #515151",
"E	c #414141",
"F	c #242424",
"G	c #6A6A6A",
"H	c #A6A6A6",
"I	c #A9ABAE",
"J	c #BCBFC4",
"K	c #A7A9AC",
"L	c #222222",
"M	c #575757",
"N	c #6094C7",
"O	c #F6F7F9",
"P	c #EAF0F8",
"Q	c #E6EDF7",
"R	c #E1EAF4",
"S	c #DEE8F2",
"T	c #F6F8FA",
"U	c #6093C7",
"V	c #494949",
"W	c #6193C8",
"X	c #6496CA",
"Y	c #6295C9",
"    .++@@#$     ",
"   #%&***=-;    ",
"   >,')!~{]^/   ",
"   (,''_~:%<[   ",
"   (,}|)_12,3   ",
"  4#&5|})~6&78  ",
" 90(&a5}}_~&bcd ",
"efghhhhhhhhhhgci",
"jkklmmmmmmmmnkki",
"hoopqllllllqroos",
"tuuevwwwwwwuxuuy",
"zAAxfAAAAAAfjAAB",
"iCCejjtisDEEiCCF",
"GHCjIJJJJJJKBC9L",
"rtMNO*PPQRSTULV ",
"   WXXXXXYYXW   "};
