/* XPM */
static char * report_xpm[] = {
"16 16 56 1",
" 	c None",
".	c #C18A63",
"+	c #BD7748",
"@	c #B96027",
"#	c #CDCDCD",
"$	c #CAC5C3",
"%	c #CDC7C0",
"&	c #B75D26",
"*	c #FCFCFC",
"=	c #B88666",
"-	c #C49966",
";	c #F5F5F5",
">	c #F2F2F2",
",	c #B65925",
"'	c #F9F9F9",
")	c #B58165",
"!	c #C39865",
"~	c #79A4E1",
"{	c #76A1E0",
"]	c #759FE0",
"^	c #729EE0",
"/	c #B45525",
"(	c #A1BEEA",
"_	c #9FBDEA",
":	c #709CDE",
"<	c #C29564",
"[	c #B35424",
"}	c #719BDC",
"|	c #6D99DC",
"1	c #B15124",
"2	c #EDEDED",
"3	c #B47E64",
"4	c #C09262",
"5	c #B15023",
"6	c #6A98DA",
"7	c #6997D9",
"8	c #6992D4",
"9	c #E9E9E9",
"0	c #CCC6BF",
"a	c #B04D22",
"b	c #D1D1D1",
"c	c #B27962",
"d	c #AD4921",
"e	c #CACACA",
"f	c #E6E6E6",
"g	c #BE8E60",
"h	c #AD4521",
"i	c #AA4120",
"j	c #D4D4D4",
"k	c #FFFFFF",
"l	c #A44A2B",
"m	c #AE5C34",
"n	c #DCDCDC",
"o	c #D8D8D8",
"p	c #C7C7C7",
"q	c #BD9689",
"  .+@           ",
" #$%&********** ",
"  =-&;;;;;;;;>* ",
" #$%,;;;;;;;;>' ",
"  )!,''~{{{]^;' ",
" #$%/''{(((_:;; ",
"  )<[''{]^^}|>; ",
" #$%1*'''';>>>2 ",
"  345''^:|67892 ",
" #$0a''';;'''>b ",
"  c4d''';>''>e9 ",
" #$0d''';>*>ef* ",
"  cgh'';>2>ef** ",
" #$0i**';2j9kkk ",
"  lminojbbjbe#p ",
"   q            "};
